<svg width="1376" height="504" viewBox="0 0 1376 504" fill="none" xmlns="http://www.w3.org/2000/svg">
<path d="M84.7774 -543.495C142.565 -482.635 207.738 -427.376 273.827 -373.976C339.916 -320.575 407.839 -270.892 478.538 -222.15C618.993 -127.442 766.808 -42.9679 921.04 28.4963C998.156 64.2284 1077.11 96.2434 1157.89 124.541C1239.59 150.981 1319.43 176.504 1402.02 196.451C1568.13 234.486 1737.85 255.82 1906.52 255.843C1906.52 255.843 1906.52 255.843 1907.44 253.985C1907.44 253.985 1907.44 253.985 1905.58 253.068C1735.91 241.002 1568.97 218.726 1404.7 176.973C1241.37 137.996 1081.67 82.317 925.599 14.5698C772.308 -54.1191 622.66 -134.876 482.205 -229.584C412.449 -275.551 342.667 -326.151 275.661 -377.693C209.572 -431.093 146.258 -485.435 84.7774 -543.495C85.6942 -545.353 83.8357 -546.27 84.7774 -543.495C82.9189 -544.412 82.9189 -544.412 84.7774 -543.495Z" fill="#573393"/>
<path d="M310.626 -425.147C419.585 -327.49 538.68 -241.008 664.217 -162.903C696.753 -144.541 726.514 -125.238 759.051 -106.876L855.719 -54.566L954.221 -5.97322C987.674 10.53 1020.19 24.2579 1054.56 38.9025L1105.65 61.7987L1157.67 82.8366C1192.95 95.6227 1225.47 109.351 1260.75 122.137C1330.39 144.934 1399.1 169.589 1472.4 184.952C1615.33 223.112 1760.94 241.794 1907.44 253.985C1907.44 253.985 1907.44 253.985 1908.36 252.126C1908.36 252.126 1908.36 252.126 1906.5 251.209C1760.87 227.893 1617.09 205.493 1475.99 163.616C1405.47 147.312 1336.75 122.656 1266.2 101.718C1231.86 91.7071 1197.49 77.0623 1162.2 64.2762L1111.13 46.0137L1061.89 24.0344C1027.52 9.38969 995.009 -4.33825 961.556 -20.8415L863.054 -69.4343L766.386 -121.744C733.849 -140.106 703.171 -157.551 671.552 -177.771C544.206 -247.526 421.419 -331.207 310.626 -425.147C311.543 -427.006 309.684 -427.923 310.626 -425.147C308.767 -426.064 308.767 -426.064 310.626 -425.147Z" fill="#61CE70"/>
<path opacity="0.5" d="M236.98 -332.072C354.266 -237.24 479.828 -154.5 609.974 -81.0535C740.12 -7.60654 876.709 57.4646 1016.94 110.468C1087.51 136.04 1158.09 161.612 1231.41 181.609C1304.74 201.606 1377.12 218.827 1451.34 232.332C1600.69 257.482 1750.88 266.872 1900.03 254.951C1900.03 254.951 1900.03 254.951 1900.95 253.092C1900.95 253.092 1900.95 253.092 1899.09 252.175C1748.95 252.053 1599.67 240.805 1454.01 212.854C1381.66 200.267 1307.41 182.129 1235.95 163.049C1164.48 143.969 1092.99 120.255 1022.42 94.6827C881.268 43.538 745.621 -18.7577 614.558 -90.3461C482.578 -160.076 356.099 -240.957 236.98 -332.072C236.98 -332.072 235.121 -332.989 236.98 -332.072C235.121 -332.989 235.121 -332.989 236.98 -332.072Z" fill="#61CE70"/>
</svg>
