<svg width="62" height="58" viewBox="0 0 62 58" fill="none" xmlns="http://www.w3.org/2000/svg">
<path d="M31 21V37" stroke="#E1DDE7" stroke-width="2" stroke-miterlimit="10" stroke-linecap="square"/>
<path d="M8 37V29H54V37" stroke="#E1DDE7" stroke-width="2" stroke-miterlimit="10" stroke-linecap="square"/>
<path d="M31 15C34.866 15 38 11.866 38 8C38 4.13401 34.866 1 31 1C27.134 1 24 4.13401 24 8C24 11.866 27.134 15 31 15Z" stroke="#E1DDE7" stroke-width="2" stroke-miterlimit="10" stroke-linecap="square"/>
<path d="M8 57C11.866 57 15 53.866 15 50C15 46.134 11.866 43 8 43C4.13401 43 1 46.134 1 50C1 53.866 4.13401 57 8 57Z" stroke="#E1DDE7" stroke-width="2" stroke-miterlimit="10" stroke-linecap="square"/>
<path d="M31 57C34.866 57 38 53.866 38 50C38 46.134 34.866 43 31 43C27.134 43 24 46.134 24 50C24 53.866 27.134 57 31 57Z" stroke="#E1DDE7" stroke-width="2" stroke-miterlimit="10" stroke-linecap="square"/>
<path d="M54 57C57.866 57 61 53.866 61 50C61 46.134 57.866 43 54 43C50.134 43 47 46.134 47 50C47 53.866 50.134 57 54 57Z" stroke="#E1DDE7" stroke-width="2" stroke-miterlimit="10" stroke-linecap="square"/>
</svg>
