<svg width="125" height="99" viewBox="0 0 125 99" fill="none" xmlns="http://www.w3.org/2000/svg">
<g opacity="0.06">
<path d="M48.9963 91.6424C37.4191 102.407 17.7032 99.5604 8.47192 88.1629C-2.45364 74.7018 -4.63513 49.1891 14.3986 26.3673C23.8396 15.0474 35.2175 6.46472 48.5207 0.619202L54.6562 10.5009C35.7319 19.6713 21.5874 32.1048 19.5831 52.9506C28.1215 52.9506 35.2056 52.6413 41.5154 54.8991C48.6991 57.4696 53.0625 62.2369 54.8534 67.7035C57.6942 76.2629 56.3171 84.8356 48.9963 91.6424ZM117.612 91.6424C106.034 102.407 86.3185 99.5604 77.0872 88.1629C66.1617 74.7018 63.9802 49.1891 83.014 26.3673C92.4549 15.0474 103.833 6.46472 117.136 0.619202L123.272 10.5009C104.347 19.6713 90.2028 32.1048 88.1984 52.9506C96.7368 52.9506 103.821 52.6413 110.131 54.8991C117.314 57.4696 121.678 62.2369 123.469 67.7035C126.309 76.2629 124.932 84.8356 117.612 91.6424Z" fill="#39235E"/>
</g>
</svg>
